<svg id="Layer_1" data-name="Layer 1" xmlns="http://www.w3.org/2000/svg" viewBox="0 0 540.64 534.91"><defs><style>.cls-1,.cls-4{fill:#4ebbe1;}.cls-1,.cls-3,.cls-4,.cls-6{stroke:#fff;}.cls-1,.cls-2,.cls-3,.cls-4,.cls-5,.cls-6{stroke-miterlimit:10;}.cls-1{stroke-width:10.8px;}.cls-2,.cls-5{stroke:#000;}.cls-2{stroke-width:1.15px;}.cls-3{fill:#fff;stroke-width:2.23px;opacity:0.59;}.cls-4{stroke-width:14.4px;}.cls-5,.cls-6{fill:none;}.cls-5{stroke-width:28.8px;}.cls-6{stroke-width:15.12px;}</style></defs><title>yhack-logo</title><path class="cls-1" d="M618.65,249.66q4.38,11.61,7.48,35.85h20.64V186.46H604.43a189.11,189.11,0,0,1-8.91,43.64,40.8,40.8,0,0,1,8.18,2.79A29.46,29.46,0,0,1,618.65,249.66Z" transform="translate(-119.27 -18.07)"/><path class="cls-1" d="M633.87,438.21q-3.1,24.26-7.48,35.85a29.44,29.44,0,0,1-15,16.77Q600.85,496,578.67,496H445.57L561.65,344.32l-25.81-27.26A190,190,0,0,1,492,344.11l5.14,5.37L361,525.92v21.67H654.51V438.21H633.87Z" transform="translate(-119.27 -18.07)"/><path class="cls-2" d="M342.88,324.3L159.71,507.47a17.24,17.24,0,0,1-24.33,0L124.86,497a17.24,17.24,0,0,1,0-24.33L308,289.46A160.31,160.31,0,0,0,342.88,324.3Z" transform="translate(-119.27 -18.07)"/><path class="cls-3" d="M457.43,78.17a16.84,16.84,0,0,1-12.36,30l-0.34,0c-0.61-.13-1.22-0.26-1.84-0.36a69.46,69.46,0,0,0-67.24,25.69c-0.11.15-.22,0.28-0.32,0.44h0A16.79,16.79,0,0,1,348,114.39l0.84-1.11,0.72-.93a103,103,0,0,1,98.87-37.67l1,0.17c0.93,0.18,1.86.36,2.78,0.56A16.85,16.85,0,0,1,457.43,78.17Z" transform="translate(-119.27 -18.07)"/><path class="cls-4" d="M541.65,302.82l-55.57-58.69h99.08a168.6,168.6,0,0,0,14.51-60.94h-250v27.42l123,128.51A169,169,0,0,0,541.65,302.82Z" transform="translate(-119.27 -18.07)"/><path class="cls-5" d="M596.86,192.25A159.78,159.78,0,1,1,437.09,32.47,159.77,159.77,0,0,1,596.86,192.25Z" transform="translate(-119.27 -18.07)"/><circle class="cls-6" cx="317.82" cy="174.18" r="148.85"/></svg>